<?xml version="1.0" encoding="iso-8859-1"?>
<!-- Uploaded to: SVG Repo, www.svgrepo.com, Generator: SVG Repo Mixer Tools -->
<svg height="800px" width="800px" version="1.1" id="Layer_1" xmlns="http://www.w3.org/2000/svg" xmlns:xlink="http://www.w3.org/1999/xlink" 
	 viewBox="0 0 512 512" xml:space="preserve">
<path style="fill:#91DDE2;" d="M165.678,244.153c17.745,0,28.575-5.338,34.257-12.994c-42.289,28.702-87.158-40.409-55.863-70.951
	c-18.232-26.475-84.733-13.033-53.919,40.341C48.96,129.198-17.41,244.153,64.979,244.153c-82.389,0-16.021,114.956,25.175,43.603
	c-41.195,71.352,91.545,71.352,50.349,0C181.699,359.109,248.069,244.153,165.678,244.153z"/>
<path style="fill:#FE79A5;" d="M290.37,87.059c56.244-97.416-124.986-97.416-68.742,0c-56.244-97.416-146.858,59.532-34.371,59.532
	c-112.487,0-21.873,156.949,34.371,59.532c-56.244,97.416,124.986,97.416,68.742,0c56.244,97.416,146.858-59.532,34.371-59.532
	C437.228,146.591,346.613-10.359,290.37,87.059z"/>
<path style="fill:#91DDE2;" d="M447.018,244.153c82.389,0,16.021-114.956-25.175-43.603c30.814-53.373-35.687-66.816-53.919-40.341
	c31.295,30.541-13.574,99.652-55.863,70.951c5.682,7.655,16.512,12.994,34.257,12.994c-82.389,0-16.021,114.956,25.175,43.603
	c-41.195,71.352,91.544,71.352,50.349,0C463.037,359.109,529.407,244.153,447.018,244.153z"/>
<circle style="fill:#FDF5EA;" cx="255.991" cy="146.595" r="55.443"/>
<path d="M488.235,244.153c8.079-7.935,10.58-17.124,11.329-21.375c4.047-22.953-11.037-49.078-32.937-57.049
	c-4.041-1.47-13.197-3.888-24.063-0.907c-2.712-10.698-9.539-18.769-17.688-23.915c-11.087-7.003-26.375-9.416-40.341-6.429
	c3.433-5.351,5.786-11.381,6.946-17.954c5.124-29.06-13.974-62.141-41.704-72.233c-11.623-4.23-23.679-4.016-35.055,0.587
	c-1.703-12.154-7.547-22.703-17.019-30.653c-22.605-18.969-60.803-18.969-83.407,0c-9.474,7.95-15.317,18.499-17.019,30.653
	c-11.375-4.601-23.433-4.817-35.055-0.587c-27.73,10.093-46.828,43.172-41.704,72.233c1.16,6.575,3.513,12.603,6.946,17.955
	c-13.967-2.987-29.255-0.574-40.341,6.427c-8.149,5.147-14.978,13.218-17.69,23.915c-10.859-2.98-20.02-0.562-24.063,0.907
	c-21.9,7.971-36.984,34.097-32.937,57.049c0.75,4.251,3.251,13.44,11.329,21.375c-8.079,7.935-10.58,17.124-11.329,21.375
	c-4.047,22.953,11.037,49.078,32.937,57.049c4.058,1.475,13.262,3.905,24.177,0.876c2.833,10.963,9.539,17.724,12.846,20.499
	c8.928,7.491,20.932,11.236,32.937,11.236s24.01-3.745,32.937-11.236c1.553-1.303,3.856-3.499,6.156-6.583l21.447,26.943
	c2.745,3.449,6.797,5.244,10.888,5.244c3.036,0,6.092-0.989,8.652-3.027c6.007-4.782,7.002-13.53,2.218-19.54l-18.171-22.825
	c2.45-0.471,4.447-1.082,5.832-1.587c16.791-6.112,29.562-22.896,32.79-40.739c7.077,4.952,15.337,8.288,24.014,9.994v164.552
	c0,7.679,6.227,13.906,13.906,13.906c7.679,0,13.906-6.227,13.906-13.906V291.832c8.677-1.706,16.937-5.041,24.014-9.994
	c3.228,17.843,15.999,34.627,32.79,40.739c1.386,0.503,3.383,1.115,5.832,1.587l-18.171,22.825
	c-4.784,6.009-3.791,14.757,2.218,19.54c2.56,2.039,5.617,3.027,8.652,3.027c4.09,0,8.143-1.797,10.888-5.244l21.447-26.943
	c2.3,3.084,4.603,5.28,6.156,6.583c8.928,7.491,20.933,11.236,32.937,11.236c12.005,0,24.01-3.745,32.937-11.236
	c3.307-2.774,10.014-9.535,12.846-20.499c10.912,3.029,20.12,0.599,24.177-0.876c21.9-7.971,36.984-34.097,32.937-57.049
	C498.814,261.278,496.314,252.088,488.235,244.153z M364.176,190.521c-0.007,0.056-0.017,0.11-0.025,0.164
	c-1.92,13.473-11.934,27.72-23.885,32.07c-2.559,0.932-5.035,1.346-7.426,1.334c-3.998-0.051-8.357-1.303-12.97-4.433
	c-0.249-0.17-0.508-0.318-0.765-0.47c-6.789-4.864-12.433-12.635-16.694-20.015c-0.142-0.246-0.303-0.473-0.457-0.706
	c11.034-9.787,18.944-23.02,21.998-38.006c0.263,0.015,0.521,0.04,0.788,0.04c11.707,0,25.364,1.887,33.241,9.416
	c0.079,0.081,0.15,0.168,0.232,0.248c5.179,5.053,6.858,12.152,6.059,19.535C364.24,189.97,364.214,190.246,364.176,190.521z
	 M209.585,199.171c-4.257,7.374-9.895,15.138-16.676,20.002c-0.263,0.154-0.527,0.307-0.783,0.481
	c-4.129,2.803-8.056,4.102-11.699,4.38c-0.085,0.006-0.17,0.007-0.254,0.011c-0.33,0.021-0.658,0.036-0.983,0.042
	c-2.4,0.017-4.888-0.398-7.459-1.334c-11.951-4.35-21.964-18.596-23.885-32.07c-0.007-0.054-0.017-0.108-0.024-0.164
	c-0.038-0.277-0.065-0.551-0.096-0.826c-0.798-7.383,0.882-14.482,6.059-19.535c0.082-0.079,0.153-0.167,0.232-0.248
	c7.875-7.529,21.533-9.416,33.241-9.416c0.266,0,0.526-0.025,0.788-0.04c3.054,14.986,10.963,28.219,21.998,38.006
	C209.888,198.696,209.727,198.924,209.585,199.171z M214.462,146.591c0-22.904,18.632-41.537,41.537-41.537
	s41.537,18.632,41.537,41.537c0,22.903-18.632,41.535-41.537,41.535S214.462,169.494,214.462,146.591z M340.265,70.427
	c14.75,5.369,26.553,25.811,23.828,41.27c-3.059,17.349-23.089,20.99-39.352,20.99c-0.266,0-0.526,0.025-0.788,0.04
	c-3.054-14.986-10.963-28.219-21.998-38.007c0.154-0.234,0.316-0.462,0.457-0.708C310.544,79.926,323.72,64.4,340.265,70.427z
	 M232.171,35.532c12.026-10.09,35.628-10.09,47.655,0c13.493,11.324,6.633,30.489-1.499,44.574
	c-0.136,0.236-0.235,0.484-0.357,0.724c-6.91-2.315-14.292-3.588-21.971-3.588c-7.679,0-15.061,1.274-21.971,3.588
	c-0.121-0.241-0.22-0.488-0.357-0.724C225.539,66.021,218.678,46.854,232.171,35.532z M171.733,70.427
	c16.545-6.025,29.721,9.5,37.853,23.584c0.142,0.246,0.303,0.473,0.457,0.708c-11.034,9.787-18.944,23.021-21.998,38.008
	c-0.263-0.015-0.521-0.04-0.788-0.04c-16.263,0-36.293-3.641-39.352-20.99C145.18,96.237,156.982,75.796,171.733,70.427z
	 M175.777,296.443c-9.699,3.521-17.987-6.555-23.23-15.639c-3.841-6.65-12.344-8.93-18.995-5.09
	c-4.462,2.577-6.957,7.252-6.956,12.059c0.001,2.357,0.602,4.747,1.866,6.936c5.244,9.082,9.834,21.302,1.929,27.938
	c-7.46,6.258-22.66,6.258-30.12,0c-7.907-6.634-3.315-18.856,1.929-27.938c1.264-2.189,1.865-4.579,1.866-6.936
	c0.001-4.807-2.493-9.482-6.956-12.059c-6.653-3.841-15.156-1.56-18.995,5.09c-5.244,9.083-13.535,19.159-23.23,15.639
	c-9.151-3.332-16.751-16.495-15.06-26.085c1.792-10.167,14.671-12.3,25.158-12.3c7.679,0,13.906-6.227,13.906-13.906
	c0-7.679-6.227-13.906-13.906-13.906c-10.488,0-23.366-2.133-25.158-12.3c-1.691-9.589,5.909-22.753,15.06-26.085
	c9.695-3.529,17.987,6.555,23.23,15.639c3.841,6.651,12.346,8.933,18.995,5.09c6.651-3.841,8.93-12.344,5.09-18.995
	c-0.008-0.014-0.015-0.028-0.024-0.04c-5.649-9.795-10.254-22.786-0.203-29.134c6.443-4.069,16.067-4.417,23.152-1.731
	c-3.511,6.825-5.198,14.228-5.401,21.732c-0.021,0.613-0.024,1.227-0.025,1.841c0,0.025,0,0.05,0,0.074
	c0.004,21.546,11.91,43.638,29.738,55.903c0.081,0.057,0.16,0.115,0.242,0.171c0.385,0.261,0.777,0.512,1.168,0.765
	c0.311,0.202,0.619,0.414,0.932,0.609c-0.004,0.122-0.006,0.245-0.006,0.369c0,7.679,6.227,13.906,13.906,13.906
	c10.488,0,23.366,2.133,25.158,12.3C192.528,279.947,184.928,293.112,175.777,296.443z M279.826,257.649
	c-4.522,3.795-10.681,6.159-17.246,7.1c-4.496,0.339-8.146,0.861-13.163,0c-6.565-0.941-12.724-3.305-17.246-7.1
	c-13.493-11.324-6.633-30.489,1.499-44.574c0.136-0.236,0.235-0.484,0.357-0.724c6.91,2.315,14.292,3.588,21.971,3.588
	c7.679,0,15.061-1.274,21.971-3.588c0.121,0.241,0.22,0.488,0.357,0.724C286.459,227.16,293.319,246.327,279.826,257.649z
	 M447.016,258.059c10.488,0,23.366,2.133,25.159,12.3c1.691,9.589-5.909,22.753-15.06,26.085
	c-9.699,3.521-17.987-6.555-23.23-15.639c-3.839-6.65-12.343-8.93-18.995-5.09c-4.462,2.577-6.957,7.252-6.956,12.059
	c0.001,2.357,0.602,4.747,1.866,6.936c5.244,9.082,9.834,21.302,1.929,27.938c-7.46,6.258-22.66,6.258-30.12,0
	c-7.907-6.634-3.315-18.856,1.929-27.938c1.264-2.189,1.865-4.579,1.866-6.936c0.001-4.807-2.493-9.482-6.956-12.059
	c-6.653-3.841-15.156-1.56-18.995,5.09c-5.244,9.083-13.532,19.159-23.23,15.639c-9.151-3.332-16.751-16.495-15.06-26.085
	c1.792-10.167,14.671-12.3,25.159-12.3c7.679,0,13.906-6.227,13.906-13.906c0-0.124-0.001-0.248-0.006-0.37
	c0.282-0.177,0.56-0.368,0.841-0.551c0.427-0.275,0.855-0.548,1.275-0.834c0.046-0.031,0.09-0.064,0.136-0.096
	c17.876-12.252,29.821-34.384,29.825-55.966c0-0.025,0-0.049,0-0.074c0-0.615-0.004-1.228-0.025-1.841
	c-0.203-7.504-1.888-14.908-5.401-21.732c7.082-2.682,16.711-2.338,23.152,1.731c10.053,6.348,5.446,19.339-0.203,29.134
	c-0.008,0.014-0.015,0.028-0.024,0.04c-3.841,6.651-1.562,15.155,5.09,18.995c6.653,3.841,15.155,1.56,18.995-5.09
	c5.244-9.083,13.53-19.168,23.23-15.639c9.151,3.332,16.751,16.495,15.06,26.085c-1.792,10.167-14.671,12.3-25.159,12.3
	c-7.679,0-13.906,6.227-13.906,13.906C433.109,251.832,439.337,258.059,447.016,258.059z"/>
<path d="M255.998,512c-0.904,0-1.823-0.083-2.712-0.263c-0.889-0.179-1.766-0.445-2.6-0.793c-0.848-0.348-1.653-0.779-2.404-1.279
	c-0.766-0.501-1.475-1.085-2.115-1.724c-0.64-0.64-1.224-1.361-1.724-2.114c-0.499-0.766-0.932-1.571-1.279-2.406
	c-0.348-0.834-0.626-1.709-0.807-2.6c-0.181-0.902-0.263-1.808-0.263-2.726c0-0.902,0.083-1.808,0.263-2.712
	c0.181-0.89,0.459-1.766,0.807-2.599c0.348-0.836,0.765-1.642,1.279-2.406c0.501-0.751,1.085-1.474,1.724-2.114
	c0.64-0.641,1.349-1.225,2.115-1.724c0.751-0.501,1.556-0.932,2.404-1.279c0.836-0.348,1.71-0.612,2.6-0.793
	c1.794-0.362,3.629-0.362,5.423,0c0.89,0.181,1.766,0.445,2.599,0.793c0.848,0.348,1.655,0.779,2.406,1.279
	c0.765,0.499,1.474,1.083,2.114,1.724c0.641,0.64,1.225,1.361,1.724,2.114c0.501,0.765,0.932,1.571,1.279,2.406
	c0.348,0.834,0.626,1.709,0.807,2.599c0.181,0.904,0.264,1.809,0.264,2.712c0,0.918-0.085,1.823-0.264,2.726
	c-0.181,0.891-0.459,1.767-0.807,2.6c-0.348,0.836-0.779,1.641-1.279,2.406c-0.499,0.751-1.083,1.474-1.724,2.114
	c-0.64,0.64-1.349,1.224-2.114,1.724c-0.751,0.501-1.557,0.932-2.406,1.279c-0.834,0.348-1.709,0.612-2.599,0.793
	S256.902,512,255.998,512z"/>
<path d="M300.483,403.131c-3.659,0-7.245-1.487-9.831-4.074c-0.64-0.64-1.224-1.349-1.724-2.115
	c-0.501-0.751-0.932-1.556-1.279-2.392c-0.348-0.847-0.612-1.724-0.793-2.614s-0.277-1.808-0.277-2.712
	c0-0.902,0.096-1.822,0.277-2.712c0.181-0.89,0.445-1.766,0.793-2.599c0.348-0.848,0.779-1.655,1.279-2.406
	c0.501-0.765,1.085-1.474,1.724-2.114s1.361-1.225,2.114-1.724c0.751-0.501,1.557-0.932,2.406-1.279
	c0.834-0.348,1.709-0.612,2.6-0.793c4.519-0.918,9.317,0.57,12.543,3.796c0.64,0.64,1.224,1.349,1.738,2.114
	c0.501,0.751,0.932,1.557,1.279,2.406c0.348,0.834,0.612,1.709,0.793,2.599c0.181,0.891,0.264,1.809,0.264,2.712
	c0,0.904-0.085,1.823-0.264,2.712c-0.179,0.889-0.445,1.767-0.793,2.614c-0.348,0.836-0.779,1.641-1.279,2.392
	c-0.514,0.766-1.099,1.475-1.738,2.115C307.728,401.644,304.154,403.131,300.483,403.131z"/>
<path d="M211.5,403.131c-0.904,0-1.808-0.083-2.712-0.263c-0.89-0.181-1.766-0.459-2.6-0.807c-0.834-0.348-1.641-0.765-2.392-1.265
	c-0.765-0.515-1.475-1.099-2.115-1.738c-0.654-0.64-1.224-1.349-1.738-2.115c-0.499-0.751-0.932-1.556-1.279-2.392
	c-0.348-0.847-0.61-1.724-0.791-2.614c-0.182-0.89-0.264-1.808-0.264-2.712c0-0.902,0.083-1.822,0.264-2.712
	c0.181-0.89,0.444-1.766,0.791-2.599c0.348-0.848,0.78-1.655,1.279-2.406c0.515-0.765,1.085-1.474,1.738-2.114
	c0.64-0.64,1.35-1.225,2.115-1.724c0.751-0.501,1.557-0.932,2.392-1.279c0.836-0.348,1.71-0.612,2.6-0.793
	c1.794-0.362,3.643-0.362,5.437,0c0.89,0.181,1.766,0.445,2.6,0.793c0.834,0.348,1.641,0.779,2.404,1.279
	c0.751,0.499,1.46,1.085,2.1,1.724c0.655,0.64,1.225,1.349,1.738,2.114c0.501,0.751,0.933,1.557,1.281,2.406
	c0.348,0.834,0.61,1.709,0.791,2.599c0.181,0.891,0.278,1.809,0.278,2.712c0,0.904-0.097,1.823-0.278,2.712
	c-0.181,0.889-0.444,1.767-0.791,2.614c-0.348,0.836-0.78,1.641-1.281,2.392c-0.513,0.766-1.083,1.475-1.738,2.115
	C218.745,401.644,215.171,403.131,211.5,403.131z"/>
</svg>