<?xml version="1.0" encoding="iso-8859-1"?>
<!-- Uploaded to: SVG Repo, www.svgrepo.com, Generator: SVG Repo Mixer Tools -->
<svg height="800px" width="800px" version="1.1" id="Layer_1" xmlns="http://www.w3.org/2000/svg" xmlns:xlink="http://www.w3.org/1999/xlink" 
	 viewBox="0 0 511.999 511.999" xml:space="preserve">
<path d="M310.697,36.942c-1.045,0-2.09-0.111-3.103-0.317c-1.013-0.19-2.012-0.507-2.96-0.902c-0.948-0.396-1.882-0.887-2.737-1.456
	c-0.872-0.568-1.68-1.233-2.408-1.962c-0.728-0.728-1.393-1.537-1.963-2.408c-0.568-0.855-1.061-1.773-1.456-2.737
	c-0.396-0.951-0.695-1.947-0.901-2.96c-0.207-1.015-0.317-2.06-0.317-3.087c0-1.029,0.109-2.075,0.317-3.087
	c0.206-1.013,0.505-2.011,0.901-2.96c0.396-0.964,0.888-1.882,1.456-2.737c0.57-0.872,1.235-1.68,1.963-2.408
	c0.728-0.728,1.536-1.393,2.408-1.963c0.855-0.584,1.789-1.061,2.737-1.456c0.948-0.396,1.947-0.711,2.96-0.901
	c5.129-1.045,10.607,0.649,14.28,4.32c0.746,0.728,1.395,1.536,1.979,2.408c0.57,0.855,1.062,1.773,1.458,2.737
	c0.396,0.951,0.695,1.947,0.901,2.96c0.206,1.013,0.301,2.058,0.301,3.087c0,1.027-0.097,2.074-0.301,3.087
	c-0.206,1.013-0.505,2.011-0.901,2.96c-0.396,0.964-0.888,1.882-1.458,2.737c-0.584,0.871-1.233,1.68-1.979,2.408
	C318.929,35.247,314.861,36.942,310.697,36.942z"/>
<path d="M297.128,49.723c-7.903-3.746-17.342-0.37-21.086,7.528l-20.043,42.3l-20.044-42.3c-3.744-7.901-13.181-11.274-21.086-7.528
	c-7.901,3.744-11.272,13.184-7.526,21.086l33.126,69.907c1.11,4.438,4.122,8.362,8.579,10.474c2.189,1.037,4.496,1.528,6.768,1.528
	c0.062,0,0.122-0.013,0.182-0.013c0.062,0,0.122,0.013,0.182,0.013c2.272,0,4.58-0.491,6.768-1.528
	c4.457-2.112,7.469-6.035,8.579-10.471l33.127-69.91C308.398,62.908,305.029,53.467,297.128,49.723z"/>
<path d="M201.318,36.942c-1.029,0-2.074-0.111-3.103-0.317c-0.997-0.19-1.995-0.507-2.96-0.902c-0.95-0.396-1.868-0.887-2.739-1.456
	c-0.855-0.568-1.662-1.233-2.406-1.962c-0.728-0.728-1.377-1.537-1.963-2.408c-0.57-0.855-1.061-1.773-1.456-2.737
	c-0.396-0.951-0.697-1.947-0.902-2.96c-0.206-1.015-0.301-2.06-0.301-3.087c0-1.029,0.095-2.075,0.301-3.087
	c0.206-1.012,0.507-2.011,0.902-2.96c0.396-0.964,0.887-1.882,1.456-2.737c0.586-0.872,1.235-1.68,1.963-2.408
	c0.744-0.728,1.551-1.393,2.406-1.963c0.871-0.584,1.789-1.061,2.739-1.456c0.95-0.396,1.947-0.711,2.96-0.901
	c2.042-0.429,4.148-0.429,6.19,0c1.013,0.19,2.011,0.505,2.96,0.901c0.95,0.396,1.884,0.872,2.739,1.456
	c0.871,0.57,1.678,1.235,2.406,1.963c0.728,0.728,1.393,1.536,1.963,2.408c0.57,0.855,1.061,1.773,1.456,2.737
	c0.396,0.951,0.697,1.947,0.902,2.96c0.206,1.013,0.317,2.058,0.317,3.087c0,1.027-0.111,2.074-0.317,3.087
	c-0.206,1.013-0.507,2.011-0.902,2.96c-0.396,0.964-0.887,1.882-1.456,2.737c-0.57,0.871-1.235,1.68-1.963,2.408
	C209.566,35.247,205.481,36.942,201.318,36.942z"/>
<path style="fill:#91DDE2;" d="M25.917,94.314c12.578-8.997,25.536-10.379,38.572-7.658
	c186.41,38.92,191.315,185.481,191.315,185.481s-0.37,122-0.83,123.08c-44.681,105.054-108.887,97.784-137.47,93.796
	c-90.95-12.692-77.275-124.945-38.648-161.064c32.006-29.928,70.523-35.985,75.79-36.685l-12.922-0.397
	c-5.047-0.149-10.104-0.157-15.157-0.168c-10.993-0.022-36.544-1.998-37.65-2.121c-13.596-1.506-24.877-3.348-33.14-17.896
	c-3.646-6.421-10.124-42.078-14.574-73.955c-3.437-24.619-11.183-48.303-21.312-71.005c-0.909-2.037-1.708-4.102-2.406-6.207
	C13.545,107.614,16.399,99.312,25.917,94.314z"/>
<path style="fill:#FE79A5;" d="M486.08,94.314c-12.578-8.997-25.536-10.379-38.572-7.658
	c-186.41,38.92-191.315,185.481-191.315,185.481s0.37,122,0.83,123.08c44.681,105.054,108.887,97.786,137.469,93.796
	c90.95-12.692,77.275-124.945,38.648-161.064c-32.006-29.928-70.523-35.985-75.79-36.685l12.922-0.397
	c5.047-0.149,10.104-0.157,15.157-0.168c10.993-0.022,22.362-0.046,33.495-1.513c1.534-0.161,31.3-2.884,37.296-18.504
	c4.566-5.804,10.124-42.078,14.574-73.955c3.437-24.619,11.183-48.303,21.312-71.005c0.909-2.037,1.708-4.102,2.406-6.207
	C498.454,107.614,495.6,99.312,486.08,94.314z"/>
<path d="M309.62,344.022c-4.181,0-8.266-1.678-11.193-4.623c-0.744-0.744-1.393-1.55-1.979-2.406
	c-0.57-0.872-1.061-1.791-1.456-2.739s-0.697-1.946-0.902-2.96c-0.206-1.027-0.317-2.058-0.317-3.103
	c0-1.027,0.111-2.074,0.317-3.087c0.206-1.013,0.507-2.011,0.902-2.96s0.887-1.882,1.456-2.737c0.586-0.871,1.235-1.678,1.979-2.408
	c3.673-3.671,9.135-5.367,14.28-4.32c1.015,0.206,2.012,0.507,2.96,0.902c0.951,0.396,1.87,0.887,2.739,1.457
	c0.855,0.568,1.678,1.233,2.406,1.961c0.728,0.73,1.393,1.537,1.963,2.408c0.57,0.855,1.061,1.789,1.456,2.737
	c0.396,0.951,0.697,1.947,0.902,2.96c0.206,1.015,0.299,2.06,0.299,3.087c0,1.045-0.095,2.076-0.299,3.103
	c-0.206,1.015-0.507,2.012-0.902,2.96s-0.887,1.868-1.456,2.739c-0.586,0.855-1.235,1.662-1.963,2.406
	c-0.728,0.728-1.55,1.377-2.406,1.963c-0.855,0.568-1.789,1.061-2.739,1.456c-0.95,0.396-1.946,0.695-2.96,0.902
	C311.694,343.929,310.648,344.022,309.62,344.022z"/>
<path d="M199.323,344.022c-4.179,0-8.248-1.678-11.193-4.623c-0.728-0.744-1.393-1.55-1.979-2.406
	c-0.57-0.872-1.061-1.791-1.456-2.739s-0.697-1.946-0.902-2.96c-0.206-1.027-0.301-2.058-0.301-3.103
	c0-1.027,0.095-2.074,0.301-3.087s0.507-2.011,0.902-2.96s0.887-1.882,1.456-2.737c0.586-0.871,1.251-1.678,1.979-2.408
	c3.673-3.671,9.135-5.367,14.28-4.32c1.013,0.206,2.011,0.507,2.96,0.902c0.966,0.396,1.884,0.887,2.739,1.457
	c0.871,0.568,1.678,1.233,2.406,1.961c0.728,0.73,1.393,1.537,1.963,2.408c0.57,0.855,1.061,1.789,1.456,2.737
	c0.396,0.951,0.697,1.947,0.902,2.96c0.206,1.015,0.317,2.06,0.317,3.087c0,1.045-0.111,2.076-0.317,3.103
	c-0.206,1.015-0.507,2.012-0.902,2.96c-0.396,0.948-0.887,1.868-1.456,2.739c-0.57,0.855-1.235,1.662-1.963,2.406
	c-0.728,0.728-1.536,1.377-2.406,1.963c-0.855,0.568-1.773,1.061-2.739,1.456c-0.95,0.396-1.947,0.695-2.96,0.902
	C201.397,343.929,200.35,344.022,199.323,344.022z"/>
<path d="M494.446,80.843c-14.828-10.286-31.701-13.541-50.171-9.684c-101.946,21.284-151.953,74.165-175.955,114.778
	c-4.922,8.329-8.978,16.482-12.32,24.247c-3.344-7.765-7.4-15.92-12.32-24.247c-24-40.612-74.009-93.494-175.953-114.778
	c-18.467-3.853-35.345-0.597-50.174,9.684C1.918,89.593-3.726,105.825,2.46,124.495c0.861,2.598,1.862,5.178,2.976,7.678
	c10.55,23.641,17.12,45.473,20.09,66.742c2.194,15.724,9.869,67.931,16.487,79.584c11.416,20.101,28.55,23.785,41.315,25.368
	c-5.147,3.686-10.281,7.838-15.285,12.516c-29.537,27.619-42.783,84.153-29.529,126.024c11.014,34.791,38.288,56.909,76.801,62.285
	c5.873,0.82,14.54,2.028,24.963,2.028c13.259,0,29.363-1.957,46.166-9.166c27.327-11.725,50.638-34.691,69.555-68.42
	c18.915,33.729,42.229,56.694,69.557,68.42c16.803,7.21,32.904,9.166,46.164,9.166c10.422,0,19.091-1.21,24.963-2.028
	c38.513-5.376,65.789-27.494,76.801-62.285c13.256-41.871,0.01-98.405-29.527-126.024c-5.03-4.703-10.192-8.875-15.368-12.575
	c13.705-2.449,34.044-8.877,41.67-25.682c4.569-7.737,8.585-24.553,16.215-79.212c2.968-21.265,9.538-43.096,20.09-66.744
	c1.119-2.509,2.121-5.093,2.976-7.68C515.725,105.823,510.081,89.593,494.446,80.843z M239.275,391.642
	c-40.482,92.739-93.823,85.293-119.584,81.693c-26.503-3.698-43.658-17.318-50.991-40.481c-10.615-33.528,2.531-76.1,20.969-93.339
	c28.645-26.785,63.216-32.044,67.063-32.556c8.172-1.088,14.142-8.264,13.724-16.496c-0.418-8.234-7.085-14.768-15.325-15.021
	l-12.942-0.399c-5.266-0.155-10.515-0.165-15.589-0.173c-9.659-0.021-33.322-1.789-36.042-2.036
	c-12.899-1.434-16.827-2.756-20.837-9.66c-2.094-5.095-7.64-31.394-12.839-68.635c-2.87-20.565-8.62-41.399-17.479-63.351
	C135.83,169.844,168.83,232.101,179.47,277.896c1.699,7.311,8.21,12.25,15.407,12.25c1.186,0,2.392-0.135,3.597-0.415
	c8.516-1.979,13.816-10.487,11.839-19.004c-12.394-53.344-50.306-125.692-160.196-169.352c3.459-0.32,7.13-0.06,11.134,0.777
	c72.098,15.052,124.033,48.208,154.366,98.549c21.824,36.217,24.189,69.012,24.352,71.776
	C239.845,313.42,239.559,377.951,239.275,391.642z M455.112,194.538c-6.676,47.83-10.241,63.128-12.078,67.38
	c-0.641,0.966-1.176,2.001-1.594,3.087c-0.94,2.182-10.009,6.996-23.994,8.418c-0.022,0.003-0.168,0.017-0.19,0.021
	c-0.135,0.014-0.268,0.03-0.402,0.047c-10.113,1.333-20.954,1.355-31.454,1.377c-5.077,0.009-10.325,0.019-15.613,0.174
	l-12.922,0.397c-8.239,0.253-14.905,6.787-15.325,15.021c-0.418,8.232,5.554,15.409,13.724,16.496
	c3.849,0.511,38.421,5.772,67.063,32.556c18.437,17.239,31.582,59.811,20.967,93.339c-7.333,23.163-24.488,36.783-50.99,40.481
	c-25.762,3.599-79.105,11.039-119.584-81.693c-0.282-13.688-0.568-78.198-0.693-119.141c0.177-3.01,2.603-35.705,24.352-71.799
	c30.333-50.341,82.269-83.496,154.366-98.549c2.968-0.622,5.75-0.921,8.403-0.909c-110.144,43.646-148.123,116.085-160.53,169.483
	c-1.979,8.517,3.321,17.025,11.837,19.004c1.206,0.28,2.41,0.415,3.597,0.415c7.197,0,13.707-4.939,15.406-12.25
	c10.775-46.367,44.477-109.604,143.711-148.139C463.976,152.238,458.046,173.528,455.112,194.538z"/>
</svg>