<?xml version="1.0" encoding="iso-8859-1"?>
<!-- Uploaded to: SVG Repo, www.svgrepo.com, Generator: SVG Repo Mixer Tools -->
<svg height="800px" width="800px" version="1.1" id="Layer_1" xmlns="http://www.w3.org/2000/svg" xmlns:xlink="http://www.w3.org/1999/xlink" 
	 viewBox="0 0 511.999 511.999" xml:space="preserve">
<g>
	<path style="fill:#FDF5EA;" d="M290.973,221.62v5.46c9.997,10.351,16.158,24.429,16.158,39.955
		c0,31.774-25.759,57.533-57.533,57.533c-0.078,0-0.155-0.004-0.233-0.004v0.004H143.555v-0.004c-0.078,0-0.155,0.004-0.233,0.004
		c-4.186,0-8.261-0.459-12.192-1.307c-4.514,21.396-7.096,46.837-7.096,77.057c0,22.682,9.305,44.559,9.305,67.543v15.439
		c0,8.124,6.594,14.718,14.718,14.718h211.308c15.309,0,28.08-10.826,31.098-25.226c0.449-2.111,0.678-4.309,0.678-6.549v-79.898
		C391.142,314.678,350.478,252.508,290.973,221.62z"/>
	<path style="fill:#FDF5EA;" d="M290.973,227.08v-27.343c0-52.199-42.315-94.512-94.514-94.512l0,0
		c-52.199,0-94.512,42.315-94.512,94.512v27.343c-9.997,10.351-16.159,24.429-16.159,39.955c0,31.774,25.759,57.533,57.533,57.533
		c0.078,0,0.155-0.004,0.233-0.004v0.004h105.809v-0.004c0.078,0,0.155,0.004,0.233,0.004c31.774,0,57.533-25.759,57.533-57.533
		C307.131,251.508,300.97,237.429,290.973,227.08z"/>
	<path style="fill:#FDF5EA;" d="M155.667,114.461l-31.422-75.872C115.407,17.251,90.35,7.855,69.661,18.123l0,0
		c-20.689,10.268-28.358,35.908-16.706,55.85l54.642,93.518C116.067,144.154,133.464,125.101,155.667,114.461z"/>
	<path style="fill:#FDF5EA;" d="M323.259,18.123L323.259,18.123c-20.689-10.268-45.747-0.872-54.584,20.466l-31.422,75.872
		c22.201,10.64,39.599,29.693,48.069,53.031l54.642-93.518C351.617,54.03,343.948,28.391,323.259,18.123z"/>
</g>
<polygon style="fill:#FEDEA1;" points="196.46,253.481 215.856,230.479 177.063,230.479 "/>
<path style="fill:#FE79A5;" d="M419.28,379.116c-10.641,0-20.416,3.686-28.138,9.839v70.723c7.722,6.152,17.497,9.839,28.138,9.839
	c24.964,0,45.201-20.237,45.201-45.2S444.244,379.116,419.28,379.116z"/>
<path d="M343.208,348.853c-0.907,0-1.831-0.098-2.726-0.28c-0.895-0.182-1.775-0.446-2.614-0.795
	c-0.851-0.349-1.662-0.784-2.417-1.286c-0.769-0.503-1.482-1.09-2.126-1.733c-0.643-0.643-1.23-1.356-1.732-2.126
	c-0.503-0.755-0.937-1.566-1.286-2.417c-0.349-0.84-0.615-1.719-0.797-2.614c-0.182-0.895-0.28-1.817-0.28-2.726
	c0-0.907,0.098-1.831,0.28-2.726c0.182-0.895,0.447-1.775,0.797-2.628c0.349-0.839,0.783-1.65,1.286-2.404
	c0.502-0.769,1.089-1.483,1.732-2.126c0.644-0.643,1.357-1.23,2.126-1.732c0.755-0.503,1.566-0.937,2.417-1.286
	c0.84-0.349,1.72-0.629,2.614-0.797c1.803-0.363,3.663-0.363,5.466,0c0.881,0.168,1.761,0.447,2.614,0.797
	c0.839,0.349,1.65,0.783,2.405,1.286c0.77,0.502,1.483,1.089,2.126,1.732c0.643,0.643,1.23,1.357,1.747,2.126
	c0.502,0.755,0.937,1.566,1.286,2.404c0.349,0.853,0.614,1.733,0.797,2.628c0.182,0.896,0.264,1.819,0.264,2.726
	c0,0.909-0.084,1.833-0.264,2.726c-0.183,0.895-0.447,1.775-0.797,2.614c-0.349,0.851-0.784,1.662-1.286,2.417
	c-0.517,0.77-1.104,1.483-1.747,2.126c-0.643,0.643-1.356,1.23-2.126,1.733c-0.755,0.502-1.566,0.937-2.405,1.286
	c-0.853,0.349-1.733,0.614-2.614,0.795C345.04,348.754,344.117,348.853,343.208,348.853z"/>
<path d="M185.772,262.492c2.656,3.151,6.568,4.968,10.687,4.968c4.12,0,8.031-1.817,10.687-4.968l19.397-23.002
	c3.506-4.159,4.282-9.972,1.989-14.904c-2.293-4.932-7.239-8.087-12.677-8.087h-38.794c-5.439,0-10.384,3.155-12.677,8.087
	c-2.293,4.932-1.515,10.746,1.989,14.904L185.772,262.492z"/>
<path d="M419.28,365.137c-5.114,0-10.19,0.679-15.095,1.978c-6.144-64.21-42.813-121.37-99.232-153.76v-13.618
	c0-10.616-1.56-20.869-4.415-30.574l51.497-88.138c7.5-12.838,9.358-28.369,5.098-42.611c-4.261-14.242-14.342-26.202-27.657-32.813
	c0,0-0.001,0-0.001-0.001c-13.314-6.607-28.935-7.405-42.862-2.185c-13.92,5.22-25.165,16.092-30.853,29.827l-26.171,63.195
	c-10.448-3.359-21.576-5.191-33.128-5.191s-22.678,1.833-33.128,5.191l-26.173-63.197c-5.688-13.735-16.934-24.607-30.855-29.827
	C92.384-1.806,76.763-1.011,63.444,5.6c-13.317,6.611-23.398,18.571-27.657,32.813c-4.261,14.242-2.403,29.775,5.097,42.611
	l51.497,88.138c-2.856,9.703-4.415,19.957-4.415,30.574v22.039c-10.46,12.755-16.158,28.616-16.158,45.261
	c0,29.427,17.869,54.75,43.323,65.711c-3.369,20.273-5.079,42.933-5.079,67.574c0,12.742,2.502,24.766,4.922,36.395
	c2.254,10.829,4.383,21.056,4.383,31.147v15.439c0,15.824,12.872,28.697,28.697,28.697h211.308c19.644,0,37.036-12.72,43.282-30.912
	c5.378,1.58,10.981,2.41,16.632,2.41c32.633,0,59.18-26.547,59.18-59.18S451.912,365.137,419.28,365.137z M254.916,108.349
	l26.675-64.41c2.775-6.703,8.045-11.797,14.838-14.346c6.794-2.548,14.117-2.177,20.616,1.053c6.498,3.227,11.221,8.83,13.302,15.78
	c2.079,6.952,1.208,14.23-2.452,20.494l-41.868,71.658c-0.263-0.383-0.549-0.749-0.816-1.13c-0.727-1.033-1.458-2.063-2.221-3.07
	c-0.285-0.377-0.586-0.742-0.877-1.116c-0.814-1.046-1.634-2.083-2.483-3.098c-0.317-0.379-0.647-0.744-0.969-1.118
	c-0.837-0.973-1.682-1.939-2.553-2.881c-0.396-0.428-0.804-0.843-1.206-1.265c-0.809-0.847-1.622-1.69-2.458-2.512
	c-0.516-0.507-1.044-1-1.57-1.497c-0.733-0.692-1.468-1.383-2.22-2.054c-0.667-0.597-1.349-1.178-2.03-1.76
	c-0.621-0.528-1.241-1.055-1.875-1.57c-0.837-0.681-1.687-1.343-2.544-2c-0.491-0.375-0.98-0.749-1.476-1.116
	c-1.007-0.745-2.027-1.468-3.06-2.178c-0.362-0.249-0.726-0.496-1.092-0.741C256.02,109.104,255.479,108.712,254.916,108.349z
	 M106.893,138.579L65.025,66.921c-3.66-6.264-4.531-13.544-2.452-20.494s6.804-12.555,13.302-15.782
	c3.651-1.812,7.56-2.723,11.49-2.723c3.067,0,6.147,0.555,9.125,1.672c6.793,2.547,12.063,7.643,14.839,14.346l26.676,64.41
	c-0.562,0.362-1.103,0.755-1.659,1.127c-0.366,0.245-0.731,0.493-1.095,0.744c-1.03,0.709-2.051,1.432-3.056,2.175
	c-0.498,0.368-0.988,0.742-1.48,1.118c-0.856,0.656-1.706,1.317-2.542,1.998c-0.635,0.516-1.257,1.044-1.88,1.574
	c-0.679,0.58-1.359,1.159-2.024,1.754c-0.755,0.675-1.493,1.367-2.228,2.062c-0.521,0.493-1.047,0.983-1.559,1.486
	c-0.842,0.826-1.659,1.673-2.473,2.526c-0.397,0.417-0.8,0.826-1.19,1.248c-0.878,0.949-1.729,1.922-2.574,2.902
	c-0.316,0.366-0.639,0.726-0.949,1.096c-0.858,1.025-1.687,2.073-2.508,3.129c-0.282,0.363-0.575,0.717-0.851,1.083
	c-0.773,1.021-1.514,2.065-2.252,3.112C107.424,137.854,107.148,138.207,106.893,138.579z M99.768,267.036
	c0-11.335,4.345-22.077,12.234-30.245c2.518-2.606,3.924-6.088,3.924-9.712v-27.343c0-16.637,5.072-32.111,13.749-44.96
	c0.299-0.443,0.621-0.872,0.928-1.308c0.425-0.604,0.843-1.213,1.285-1.806c0.714-0.956,1.454-1.894,2.21-2.818
	c0.057-0.07,0.109-0.143,0.166-0.211c1.584-1.922,3.26-3.768,5.012-5.539c0.078-0.078,0.151-0.162,0.229-0.24
	c0.408-0.41,0.837-0.798,1.254-1.198c14.477-13.889,34.102-22.451,55.701-22.451c21.408,0,40.877,8.413,55.316,22.086
	c3.37,3.199,6.482,6.666,9.263,10.386c0.315,0.422,0.608,0.858,0.916,1.286c0.436,0.608,0.879,1.211,1.299,1.83
	c8.672,12.846,13.739,28.314,13.739,44.945v21.882v5.459c0,0.453,0.022,0.903,0.066,1.35c0.303,3.13,1.657,6.081,3.858,8.361
	c5.918,6.126,9.84,13.7,11.433,21.885c0.531,2.729,0.802,5.525,0.802,8.358c0,0.749-0.02,1.494-0.057,2.234
	c-0.001,0.027-0.004,0.052-0.006,0.077c-1.205,22.911-20.196,41.188-43.389,41.24c-0.036-0.001-0.076-0.001-0.091-0.001
	c-0.197-0.004-0.39-0.003-0.584,0.001h-105.13c-0.018,0-0.036,0-0.055,0c-0.095-0.001-0.19-0.004-0.285-0.004
	c-0.074,0-0.143,0.001-0.233,0.003c-0.004,0-0.007,0-0.011,0c-0.011,0-0.05,0-0.089,0.001c-0.369,0-0.733-0.021-1.099-0.031
	c-0.397-0.011-0.794-0.014-1.191-0.036c-0.136-0.007-0.268-0.024-0.403-0.031c-0.635-0.042-1.269-0.088-1.903-0.158
	c-0.022-0.003-0.046-0.006-0.069-0.008c-0.734-0.081-1.468-0.179-2.199-0.298c-0.035-0.006-0.07-0.014-0.106-0.02
	c-0.699-0.115-1.397-0.246-2.091-0.396C114.53,305.393,99.768,287.909,99.768,267.036z M377.162,466.244
	c0,1.254-0.126,2.481-0.379,3.681c-1.715,8.18-9.039,14.115-17.417,14.115H256.902v-7.39c0-12.79,10.406-23.198,23.198-23.198
	c4.687,0,9.06-2.349,11.651-6.253c2.59-3.906,3.052-8.849,1.227-13.166l-3.554-8.416c-9.761-23.101-1.485-49.694,19.681-63.229
	c6.505-4.16,8.406-12.805,4.246-19.309c-4.162-6.505-12.804-8.405-19.31-4.246c-30.471,19.488-43.636,56.513-33.052,90.36
	c-18.769,7.587-32.047,25.999-32.047,47.454v7.39h-32.842v-41.823c0-7.72-6.259-13.98-13.98-13.98c-7.721,0-13.98,6.26-13.98,13.98
	v41.823h-20.083c-0.4,0-0.738-0.338-0.738-0.738v-15.439c0-12.969-2.526-25.107-4.97-36.843c-2.23-10.714-4.337-20.834-4.337-30.698
	c0-22.622,1.51-43.337,4.493-61.775c0.271,0.003,0.544,0.004,0.815,0.004c0.081,0.001,0.157,0.001,0.233,0h105.809
	c0.078-0.001,0.155-0.001,0.233,0c38.199,0,69.5-30.107,71.419-67.839c0.062-1.218,0.094-2.442,0.094-3.674
	c0-1.22-0.041-2.434-0.101-3.644c-0.018-0.359-0.046-0.717-0.068-1.075c-0.057-0.877-0.129-1.75-0.218-2.621
	c-0.022-0.212-0.029-0.428-0.053-0.639c35.57,32.065,56.492,77.931,56.492,127.291v2.609v70.723v6.565H377.162z M419.28,455.537
	c-5.008,0-9.811-1.158-14.159-3.386v-55.67c4.348-2.228,9.151-3.386,14.159-3.386c17.215,0,31.221,14.006,31.221,31.221
	S436.495,455.537,419.28,455.537z"/>
<path d="M182.121,414.264c-0.909,0-1.831-0.098-2.726-0.28c-0.895-0.182-1.775-0.446-2.628-0.795
	c-0.839-0.35-1.65-0.784-2.405-1.286c-0.769-0.503-1.482-1.09-2.125-1.733c-0.643-0.643-1.23-1.37-1.747-2.126
	c-0.503-0.769-0.923-1.58-1.272-2.417c-0.349-0.84-0.629-1.72-0.797-2.614c-0.182-0.909-0.28-1.817-0.28-2.726
	c0-0.923,0.098-1.831,0.28-2.74c0.168-0.895,0.447-1.775,0.797-2.614c0.349-0.839,0.769-1.65,1.272-2.417
	c0.517-0.755,1.104-1.483,1.747-2.126c0.643-0.643,1.356-1.216,2.125-1.733c0.755-0.502,1.566-0.937,2.405-1.286
	c0.853-0.349,1.733-0.614,2.628-0.795c1.803-0.365,3.649-0.365,5.452,0c0.895,0.182,1.775,0.446,2.614,0.795
	c0.853,0.349,1.664,0.784,2.418,1.286c0.769,0.517,1.482,1.09,2.125,1.733c0.643,0.643,1.23,1.37,1.733,2.126
	c0.503,0.769,0.937,1.58,1.286,2.417c0.349,0.84,0.629,1.72,0.797,2.614c0.182,0.909,0.28,1.817,0.28,2.74
	c0,0.909-0.098,1.817-0.28,2.726c-0.168,0.895-0.447,1.775-0.797,2.614c-0.35,0.839-0.783,1.65-1.286,2.417
	c-0.503,0.755-1.09,1.483-1.733,2.126C189.403,412.767,185.797,414.264,182.121,414.264z"/>
</svg>