<?xml version="1.0" encoding="iso-8859-1"?>
<!-- Uploaded to: SVG Repo, www.svgrepo.com, Generator: SVG Repo Mixer Tools -->
<svg height="800px" width="800px" version="1.1" id="Layer_1" xmlns="http://www.w3.org/2000/svg" xmlns:xlink="http://www.w3.org/1999/xlink" 
	 viewBox="0 0 511.999 511.999" xml:space="preserve">
<path style="fill:#EF5A4B;" d="M256.903,64.519l33.155-20.292C286.183,18.803,272.405,0,255.999,0
	c-16.188,0-29.811,18.312-33.892,43.222L256.903,64.519z"/>
<path style="fill:#8EBA3F;" d="M238.789,330.305c-1.057,1.048-2.368,1.845-3.837,2.302c-21.439,6.646-44.612,1.007-60.475-14.715
	c-15.863-15.725-21.551-38.695-14.846-59.946c0.459-1.456,1.264-2.754,2.322-3.802c1.057-1.048,2.368-1.847,3.837-2.302
	c21.438-6.647,44.611-1.008,60.475,14.716c15.862,15.724,21.551,38.693,14.846,59.944
	C240.652,327.957,239.847,329.257,238.789,330.305z"/>
<path style="opacity:0.1;enable-background:new    ;" d="M198.524,317.89c-15.863-15.725-21.551-38.695-14.846-59.946
	c0.46-1.456,1.265-2.754,2.323-3.802c1.057-1.048,2.368-1.847,3.837-2.302c1.99-0.616,3.995-1.127,6.007-1.534
	c-9.789-1.985-20.106-1.55-30.051,1.534c-1.469,0.456-2.779,1.254-3.837,2.302c-1.057,1.048-1.863,2.347-2.322,3.802
	c-6.705,21.251-1.017,44.221,14.846,59.946c14.39,14.264,34.796,20.227,54.467,16.249
	C217.633,331.847,207.027,326.32,198.524,317.89z"/>
<path style="fill:#5D9341;" d="M273.786,383.278c-1.042-1.032-1.834-2.312-2.287-3.747c-6.604-20.932-1.001-43.558,14.624-59.044
	c15.625-15.487,38.449-21.042,59.566-14.496c1.447,0.448,2.738,1.235,3.779,2.267c1.042,1.032,1.835,2.311,2.287,3.746
	c6.605,20.932,1.001,43.557-14.623,59.045c-15.624,15.487-38.448,21.042-59.566,14.496
	C276.119,385.096,274.827,384.31,273.786,383.278z"/>
<path style="fill:#603813;" d="M310.977,346.412c-3.095-3.121-8.135-3.143-11.255-0.049l-35.765,35.451V229.878H248.04v98.392
	l-35.764-35.451c-3.121-3.094-8.161-3.073-11.255,0.049c-3.095,3.121-3.072,8.161,0.049,11.255l46.969,46.558V504.04
	c0,4.396,3.563,7.959,7.959,7.959s7.959-3.563,7.959-7.959v-99.816l46.969-46.559C314.05,354.573,314.072,349.534,310.977,346.412z"
	/>
<g>
	<path style="fill:#FFC529;" d="M117.338,129.675l-17.542-17.541c-1.346-1.346-1.346-3.529,0-4.874l17.54-17.54
		c1.346-1.346,3.529-1.346,4.874,0l17.542,17.541c1.346,1.346,1.346,3.529,0,4.874l-17.54,17.54
		C120.867,131.021,118.684,131.021,117.338,129.675z"/>
	<path style="fill:#FFC529;" d="M124.113,189.337c-11.966,8.185-19.447,15.665-27.63,27.63c-1.363,1.992-4.314,1.993-5.677,0
		c-8.185-11.965-15.665-19.446-27.63-27.63c-1.992-1.363-1.992-4.314,0-5.677c11.965-8.184,19.446-15.664,27.63-27.629
		c1.363-1.992,4.314-1.992,5.677,0c8.185,11.965,15.665,19.446,27.63,27.629C126.106,185.021,126.106,187.974,124.113,189.337z"/>
	<path style="fill:#FFC529;" d="M394.661,129.675l17.542-17.541c1.346-1.346,1.346-3.529,0-4.874l-17.54-17.54
		c-1.346-1.346-3.529-1.346-4.874,0l-17.542,17.541c-1.346,1.346-1.346,3.529,0,4.874l17.54,17.54
		C391.132,131.021,393.315,131.021,394.661,129.675z"/>
	<path style="fill:#FFC529;" d="M387.885,189.337c11.966,8.185,19.447,15.665,27.63,27.63c1.363,1.992,4.314,1.993,5.677,0
		c8.185-11.965,15.665-19.446,27.63-27.63c1.992-1.363,1.992-4.314,0-5.677c-11.965-8.184-19.444-15.664-27.63-27.629
		c-1.363-1.992-4.314-1.992-5.677,0c-8.185,11.965-15.664,19.446-27.63,27.629C385.893,185.021,385.893,187.974,387.885,189.337z"/>
</g>
<path style="fill:#5D9341;" d="M225.689,209.575c1.632,14.223,13.807,25.276,28.593,25.276h3.438
	c14.784,0,26.96-11.053,28.592-25.276H225.689z"/>
<path style="fill:#E84731;" d="M263.557,60.387l-63.974-39.155c-2.206,0-3.994,1.772-3.994,3.959v68.888
	c0,2.565,0.207,5.083,0.598,7.541L263.557,60.387z"/>
<path style="fill:#F4645D;" d="M269.878,142.379c26.868,0,48.728-21.668,48.728-48.3V25.189c0-2.186-1.788-3.959-3.994-3.959
	L195.59,94.078c0,26.632,21.858,48.3,48.728,48.3H269.878z"/>
<path style="fill:#EF5A4B;" d="M264.289,101.379l-87.37-53.475c-3.032,0-5.492,2.438-5.492,5.444v94.721
	c0,3.297,0.252,6.535,0.722,9.704L264.289,101.379z"/>
<path style="fill:#E84731;" d="M273.573,214.483c36.944,0,67.001-29.792,67.001-66.413V53.349c0-3.006-2.46-5.444-5.492-5.444
	L171.425,148.07c0,36.621,30.055,66.413,67,66.413H273.573z"/>
<path style="opacity:0.1;enable-background:new    ;" d="M204.638,148.07V64.871l-27.72-16.966c-3.032,0-5.492,2.438-5.492,5.444
	v94.721c0,36.621,30.055,66.413,67,66.413h33.212C234.694,214.483,204.638,184.691,204.638,148.07z"/>
</svg>